<?xml version="1.0" standalone="no"?>
<!DOCTYPE svg PUBLIC "-//W3C//DTD SVG 20010904//EN"
 "http://www.w3.org/TR/2001/REC-SVG-20010904/DTD/svg10.dtd">
<svg version="1.0" xmlns="http://www.w3.org/2000/svg"
 width="400.000000pt" height="400.000000pt" viewBox="0 0 400.000000 400.000000"
 preserveAspectRatio="xMidYMid meet">

<g transform="translate(0.000000,400.000000) scale(0.100000,-0.100000)"
fill="#000000" stroke="none">
<path d="M950 2015 l0 -1335 205 0 205 0 0 1335 0 1335 -205 0 -205 0 0 -1335z"/>
<path d="M1877 3343 c-3 -5 -4 -100 -3 -213 l1 -205 173 -3 172 -2 0 215 0
215 -169 0 c-94 0 -172 -3 -174 -7z"/>
<path d="M2450 3135 l0 -215 175 0 175 0 0 215 0 215 -175 0 -175 0 0 -215z"/>
<path d="M2450 2458 c0 -175 1 -188 18 -188 10 0 39 -13 65 -30 79 -50 117
-155 117 -327 l0 -83 -312 0 -313 0 6 122 c10 184 46 259 145 305 l52 24 1
154 c1 84 -1 166 -5 181 -7 26 -8 26 -63 21 -198 -21 -379 -143 -461 -311 -75
-152 -75 -153 -75 -676 0 -414 2 -472 18 -530 61 -223 205 -373 418 -434 146
-42 374 -44 526 -6 244 62 400 220 447 452 9 42 16 100 16 128 l0 50 -199 0
-199 0 -7 -53 c-14 -102 -55 -166 -129 -205 -68 -35 -235 -44 -316 -17 -108
36 -160 117 -167 265 -2 47 -5 111 -6 143 l-3 57 473 0 c522 0 528 1 552 58
10 24 12 93 9 289 -5 222 -8 269 -26 336 -34 124 -78 203 -157 282 -96 96
-209 149 -367 173 l-58 9 0 -189z"/>
</g>
</svg>
